<svg width="208" height="54" viewBox="0 0 208 54" fill="none" xmlns="http://www.w3.org/2000/svg">
<line x1="143.466" y1="11.0525" x2="143.466" y2="45.4655" stroke="white" stroke-width="0.513287" stroke-linecap="round"/>
<path fill-rule="evenodd" clip-rule="evenodd" d="M203.681 43.6216C205.504 45.9248 204.779 49.3197 202.173 50.6763L197.578 53.0691C195.536 54.1324 193.024 53.5526 191.655 51.7023L182.94 39.9277L176.543 47.5577C174.645 49.8202 171.099 49.6006 169.497 47.1206L167.281 43.694C166.286 42.1563 166.352 40.1621 167.446 38.6923L174.833 28.7681L166.478 17.0513C165.539 15.7354 165.347 14.0267 165.968 12.5342L168.007 7.64116C169.125 4.95514 172.724 4.47048 174.514 6.76356L183.075 17.7318L194.852 2.55335C196.597 0.304437 199.927 0.120991 201.909 2.16495L205.985 6.36836C207.659 8.09638 207.751 10.8118 206.197 12.6486L192.229 29.1531L203.681 43.6216ZM196.932 4.167C197.695 3.18296 199.153 3.10369 200.019 3.99715L200.021 3.99488L204.097 8.19829C204.829 8.95473 204.87 10.1426 204.19 10.9466L189.139 28.7307C188.959 28.9425 188.953 29.2527 189.127 29.4713L201.619 45.2533C202.416 46.2612 202.099 47.7468 200.959 48.3402L196.364 50.7329C195.47 51.1984 194.372 50.9447 193.773 50.1351L183.512 36.2735C183.287 35.9689 182.837 35.9553 182.594 36.2452L174.527 45.8648C173.768 46.7707 172.349 46.6824 171.708 45.6904L169.493 42.2638C169.096 41.6478 169.122 40.8506 169.559 40.2629L177.836 29.1418C177.987 28.9379 177.99 28.6605 177.842 28.4533L168.621 15.5226C168.21 14.9462 168.127 14.1999 168.398 13.5465L170.437 8.65351C170.781 7.828 171.888 7.67853 172.439 8.38401L182.618 21.4257C182.852 21.7269 183.307 21.7258 183.541 21.4246L196.932 4.167Z" fill="#00E7A2"/>
<path d="M3.21506 11.9483C1.87568 12.4398 0.985352 13.715 0.985352 15.1417V42.0684C0.985352 43.1451 1.66124 44.1059 2.67457 44.4697L19.4694 50.4993C20.3005 50.7977 21.1761 50.1817 21.1761 49.2986V21.236C21.1761 20.3452 21.7314 19.5488 22.5673 19.2409L40.8072 12.5224C41.5528 12.2478 41.548 11.1916 40.8 10.9237L24.6416 5.13698C23.7039 4.80115 22.678 4.80517 21.7429 5.14836L3.21506 11.9483Z" fill="#00E7A2"/>
<path d="M23.6579 20.5877C23.1572 20.7727 22.8247 21.25 22.8245 21.7838L22.8197 36.4606C22.8195 37.179 23.2707 37.8201 23.947 38.0624L41.3042 44.2798C42.1352 44.5774 43.0101 43.9615 43.0101 43.0789V14.655C43.0101 14.0629 42.4201 13.652 41.8648 13.8573L23.6579 20.5877Z" fill="#00B79C"/>
<path d="M66.7429 19.2609C68.3805 20.7165 69.1992 22.8198 69.1992 25.5708V39.0378C69.1992 39.5075 68.8185 39.8883 68.3488 39.8883H66.4744C66.0047 39.8883 65.624 39.5075 65.624 39.0378V26.8427C65.624 24.5174 65.1236 22.8325 64.1229 21.7882C63.6019 21.2612 62.9761 20.8495 62.2859 20.5796C61.5958 20.3098 60.8567 20.1878 60.1164 20.2216C58.9519 20.2166 57.8024 20.4839 56.7595 21.0021C55.6656 21.5764 54.7699 22.4665 54.1886 23.5567C53.4723 24.9269 53.1261 26.4603 53.1842 28.0053V39.0378C53.1842 39.5075 52.8035 39.8883 52.3338 39.8883H50.454C49.9843 39.8883 49.6035 39.5075 49.6035 39.0378V19.4659C49.6035 18.8622 50.2151 18.4507 50.7743 18.6781L52.1396 19.2333C52.5917 19.4172 52.8992 19.8428 52.9318 20.3298L52.9768 21.0021C53.6682 19.7122 54.7468 18.6717 56.0608 18.0273C57.4452 17.3721 58.9616 17.0434 60.4931 17.0666C62.7784 16.9847 65.0104 17.7683 66.7429 19.2609Z" fill="white"/>
<path d="M94.7474 29.3021C94.7082 29.7259 94.3459 30.0403 93.9203 30.0403H77.7968C78.0042 32.311 78.7575 34.0723 80.0566 35.3241C80.7291 35.9551 81.5203 36.4461 82.3843 36.7685C83.2483 37.0908 84.1678 37.2381 85.0892 37.2018C86.5025 37.2516 87.9069 36.9595 89.1831 36.3502C89.9205 35.9951 90.5371 35.443 90.9703 34.7635C91.2478 34.3283 91.8072 34.1018 92.2645 34.3409L93.6286 35.054C94.0501 35.2743 94.2121 35.8002 93.9461 36.1945C93.1439 37.3838 92.0729 38.3731 90.8151 39.0795C89.0451 39.9801 87.0738 40.4123 85.0892 40.3349C81.7159 40.3349 79.0686 39.3051 77.1473 37.2454C75.2259 35.1858 74.2634 32.3383 74.2598 28.703C74.2598 25.0641 75.1695 22.2148 76.989 20.1551C78.8084 18.0955 81.4121 17.0657 84.8 17.0657C86.6984 17.0176 88.573 17.4976 90.2147 18.4521C91.7048 19.3433 92.9019 20.6505 93.659 22.2129C94.4519 23.8735 94.8498 25.695 94.8216 27.5349C94.8265 28.125 94.8018 28.7148 94.7474 29.3021ZM80.0566 21.9291C78.8448 23.0936 78.1061 24.7311 77.8405 26.8417H91.3992C91.2799 25.0206 90.5557 23.2915 89.3414 21.9291C88.7526 21.336 88.0465 20.8724 87.2682 20.5679C86.49 20.2633 85.6567 20.1246 84.8218 20.1606C83.9497 20.123 83.079 20.2601 82.2607 20.5638C81.4423 20.8675 80.693 21.3317 80.0566 21.9291Z" fill="white"/>
<path d="M118.531 20.1576C120.456 22.2136 121.419 25.0629 121.419 28.7055C121.419 32.348 120.456 35.1955 118.531 37.2479C116.61 39.3075 113.963 40.3373 110.589 40.3373C107.216 40.3373 104.569 39.3075 102.647 37.2479C100.722 35.1919 99.7598 32.3444 99.7598 28.7055C99.7598 25.0665 100.722 22.2172 102.647 20.1576C104.569 18.1016 107.216 17.0718 110.589 17.0681C113.963 17.0645 116.61 18.0943 118.531 20.1576ZM105.262 22.4392C103.981 23.9639 103.34 26.0527 103.34 28.7055C103.34 31.3583 103.981 33.4452 105.262 34.9663C106.543 36.4874 108.319 37.2479 110.589 37.2479C112.86 37.2479 114.634 36.4874 115.911 34.9663C117.192 33.4452 117.834 31.3583 117.838 28.7055C117.842 26.0527 117.199 23.9639 115.911 22.4392C114.627 20.9145 112.853 20.154 110.589 20.1576C108.326 20.1612 106.548 20.9218 105.256 22.4392H105.262Z" fill="white"/>
</svg>
